HIERARCHY
ROOT Hips
{
  OFFSET -21.6994 31.6921 0
  CHANNELS 6 Xposition Yposition Zposition Zrotation Xrotation Yrotation
  JOINT Bip01_Pelvis
  {
    OFFSET 0 0 0
    CHANNELS 6 Xposition Yposition Zposition Zrotation Xrotation Yrotation
    JOINT BN_Tail_01
    {
      OFFSET -7.25226 -1.74978 0
      CHANNELS 6 Xposition Yposition Zposition Zrotation Xrotation Yrotation
      JOINT BN_Tail_02
      {
        OFFSET 15.788 0 0
        CHANNELS 6 Xposition Yposition Zposition Zrotation Xrotation Yrotation
        JOINT BN_Tail_03
        {
          OFFSET 16.0015 0 0
          CHANNELS 6 Xposition Yposition Zposition Zrotation Xrotation Yrotation
          JOINT BN_Tail_04
          {
            OFFSET 16.1689 0 0
            CHANNELS 6 Xposition Yposition Zposition Zrotation Xrotation Yrotation
            End Site
            {
              OFFSET 0 0 0
            }
          }
        }
      }
    }
    JOINT Bip01_Spine
    {
      OFFSET 6.38383 2.70859 0.585432
      CHANNELS 6 Xposition Yposition Zposition Zrotation Xrotation Yrotation
      JOINT BN_Mane_02
      {
        OFFSET 6.12662 8.45826 0
        CHANNELS 6 Xposition Yposition Zposition Zrotation Xrotation Yrotation
        End Site
        {
          OFFSET 0 0 0
        }
      }
      JOINT Bip01_R_Thigh
      {
        OFFSET -7.04074 -2.18223 -5.47025
        CHANNELS 6 Xposition Yposition Zposition Zrotation Xrotation Yrotation
        JOINT Bip01_R_Calf
        {
          OFFSET 13.6591 0 0
          CHANNELS 6 Xposition Yposition Zposition Zrotation Xrotation Yrotation
          JOINT Bip01_R_HorseLink
          {
            OFFSET 9.07516 0 0
            CHANNELS 6 Xposition Yposition Zposition Zrotation Xrotation Yrotation
            JOINT Bip01_R_Foot
            {
              OFFSET 8.13856 0 0
              CHANNELS 6 Xposition Yposition Zposition Zrotation Xrotation Yrotation
              JOINT Bip01_R_Toe0
              {
                OFFSET 3.79737 6.30086 0
                CHANNELS 6 Xposition Yposition Zposition Zrotation Xrotation Yrotation
                JOINT Bip01_R_Toe0Nub
                {
                  OFFSET 0.838764 0 0
                  CHANNELS 6 Xposition Yposition Zposition Zrotation Xrotation Yrotation
                  End Site
                  {
                    OFFSET 0 0 0
                  }
                }
              }
            }
          }
        }
      }
      JOINT Bip01_L_Thigh
      {
        OFFSET -6.18667 -2.14873 5.3508
        CHANNELS 6 Xposition Yposition Zposition Zrotation Xrotation Yrotation
        JOINT Bip01_L_Calf
        {
          OFFSET 13.6591 0 0
          CHANNELS 6 Xposition Yposition Zposition Zrotation Xrotation Yrotation
          JOINT Bip01_L_HorseLink
          {
            OFFSET 9.07515 0 0
            CHANNELS 6 Xposition Yposition Zposition Zrotation Xrotation Yrotation
            JOINT Bip01_L_Foot
            {
              OFFSET 8.13856 0 0
              CHANNELS 6 Xposition Yposition Zposition Zrotation Xrotation Yrotation
              JOINT Bip01_L_Toe0
              {
                OFFSET 3.79737 6.30086 0
                CHANNELS 6 Xposition Yposition Zposition Zrotation Xrotation Yrotation
                JOINT Bip01_L_Toe0Nub
                {
                  OFFSET 0.838764 0 0
                  CHANNELS 6 Xposition Yposition Zposition Zrotation Xrotation Yrotation
                  End Site
                  {
                    OFFSET 0 0 0
                  }
                }
              }
            }
          }
        }
      }
      JOINT Bip01_Spine1
      {
        OFFSET 12.1687 -0.0105438 0
        CHANNELS 6 Xposition Yposition Zposition Zrotation Xrotation Yrotation
        JOINT BN_Mane_R_01
        {
          OFFSET -0.157498 5.09008 -6.54008
          CHANNELS 6 Xposition Yposition Zposition Zrotation Xrotation Yrotation
          End Site
          {
            OFFSET 0 0 0
          }
        }
        JOINT BN_Mane_R_02
        {
          OFFSET -0.1575 5.09007 6.54
          CHANNELS 6 Xposition Yposition Zposition Zrotation Xrotation Yrotation
          End Site
          {
            OFFSET 0 0 0
          }
        }
        JOINT BN_Mane_01
        {
          OFFSET 8.29709 8.50414 0
          CHANNELS 6 Xposition Yposition Zposition Zrotation Xrotation Yrotation
          End Site
          {
            OFFSET 0 0 0
          }
        }
        JOINT Bip01_Spine2
        {
          OFFSET 13.2802 -0.0100708 1.51992e-005
          CHANNELS 6 Xposition Yposition Zposition Zrotation Xrotation Yrotation
          JOINT Bip01_Neck
          {
            OFFSET 12.4891 -6.66662 0
            CHANNELS 6 Xposition Yposition Zposition Zrotation Xrotation Yrotation
            JOINT Bip01_R_Clavicle
            {
              OFFSET -7.4542 -2.82621 -1.17874
              CHANNELS 6 Xposition Yposition Zposition Zrotation Xrotation Yrotation
              JOINT Bip01_R_UpperArm
              {
                OFFSET 13.2557 0 0
                CHANNELS 6 Xposition Yposition Zposition Zrotation Xrotation Yrotation
                JOINT Bip01_R_Forearm
                {
                  OFFSET 12.8897 0 0
                  CHANNELS 6 Xposition Yposition Zposition Zrotation Xrotation Yrotation
                  JOINT Bip01_R_Hand
                  {
                    OFFSET 11.2622 0 0
                    CHANNELS 6 Xposition Yposition Zposition Zrotation Xrotation Yrotation
                    JOINT Bip01_R_Finger0
                    {
                      OFFSET 3.98015 -0.208661 -0.0949803
                      CHANNELS 6 Xposition Yposition Zposition Zrotation Xrotation Yrotation
                      JOINT Bip01_R_Finger0Nub
                      {
                        OFFSET 6.57561 0 0
                        CHANNELS 6 Xposition Yposition Zposition Zrotation Xrotation Yrotation
                        End Site
                        {
                          OFFSET 0 0 0
                        }
                      }
                    }
                  }
                }
              }
            }
            JOINT Bip01_L_Clavicle
            {
              OFFSET -7.4541 -2.82679 1.17708
              CHANNELS 6 Xposition Yposition Zposition Zrotation Xrotation Yrotation
              JOINT Bip01_L_UpperArm
              {
                OFFSET 13.2558 0 0
                CHANNELS 6 Xposition Yposition Zposition Zrotation Xrotation Yrotation
                JOINT Bip01_L_Forearm
                {
                  OFFSET 12.8897 0 0
                  CHANNELS 6 Xposition Yposition Zposition Zrotation Xrotation Yrotation
                  JOINT Bip01_L_Hand
                  {
                    OFFSET 11.2622 0 0
                    CHANNELS 6 Xposition Yposition Zposition Zrotation Xrotation Yrotation
                    JOINT Bip01_L_Finger0
                    {
                      OFFSET 3.98014 -0.20866 0.0949764
                      CHANNELS 6 Xposition Yposition Zposition Zrotation Xrotation Yrotation
                      JOINT Bip01_L_Finger0Nub
                      {
                        OFFSET 6.57562 0 0
                        CHANNELS 6 Xposition Yposition Zposition Zrotation Xrotation Yrotation
                        End Site
                        {
                          OFFSET 0 0 0
                        }
                      }
                    }
                  }
                }
              }
            }
            JOINT Bip01_Neck1
            {
              OFFSET 4.19352 -0.00332451 0
              CHANNELS 6 Xposition Yposition Zposition Zrotation Xrotation Yrotation
              JOINT Bip01_Head
              {
                OFFSET 4.17604 0.298252 0
                CHANNELS 6 Xposition Yposition Zposition Zrotation Xrotation Yrotation
                JOINT BN_Eye_R_01
                {
                  OFFSET 6.53258 -3.90694 -2.55361
                  CHANNELS 6 Xposition Yposition Zposition Zrotation Xrotation Yrotation
                  End Site
                  {
                    OFFSET 0 0 0
                  }
                }
                JOINT BN_Eye_L_01
                {
                  OFFSET 6.5326 -3.90694 2.55371
                  CHANNELS 6 Xposition Yposition Zposition Zrotation Xrotation Yrotation
                  End Site
                  {
                    OFFSET 0 0 0
                  }
                }
                JOINT BN_Ear_R_01
                {
                  OFFSET 1.75934 -4.1584 -4.45634
                  CHANNELS 6 Xposition Yposition Zposition Zrotation Xrotation Yrotation
                  End Site
                  {
                    OFFSET 0 0 0
                  }
                }
                JOINT BN_Ear_L_01
                {
                  OFFSET 1.75933 -4.15841 4.45616
                  CHANNELS 6 Xposition Yposition Zposition Zrotation Xrotation Yrotation
                  End Site
                  {
                    OFFSET 0 0 0
                  }
                }
                JOINT BN_Beard_L_01
                {
                  OFFSET 11.2964 -1.06183 2.32054
                  CHANNELS 6 Xposition Yposition Zposition Zrotation Xrotation Yrotation
                  End Site
                  {
                    OFFSET 0 0 0
                  }
                }
                JOINT BN_Beard_R_01
                {
                  OFFSET 11.2964 -1.06182 -2.32036
                  CHANNELS 6 Xposition Yposition Zposition Zrotation Xrotation Yrotation
                  End Site
                  {
                    OFFSET 0 0 0
                  }
                }
                JOINT BN_Mouth_0
                {
                  OFFSET 1.3149 1.30001 0
                  CHANNELS 6 Xposition Yposition Zposition Zrotation Xrotation Yrotation
                  End Site
                  {
                    OFFSET 0 0 0
                  }
                }
                JOINT Bip01_HeadNub
                {
                  OFFSET 12.6869 0 0
                  CHANNELS 6 Xposition Yposition Zposition Zrotation Xrotation Yrotation
                  End Site
                  {
                    OFFSET 0 0 0
                  }
                }
              }
            }
          }
        }
      }
    }
  }
}
MOTION
Frames:	4
Frame Time:	0.0333333
-30.2956 8.43815 -6.46859e-007 176.784 -42.262 -86.3378 0 1.13687e-013 -3.55271e-015 -121.013 -2.29787 -98.6862 -7.25225 -1.74978 -2.91001e-011 2.64584 12.0288 -143.173 15.788 3.8147e-006 -9.53674e-007 7.36388 13.8512 -22.3529 16.0015 -3.8147e-006 4.76837e-007 17.281 -32.8574 -23.0488 16.1689 -7.6294e-006 -1.3145e-012 10.9785 33.0021 -18.3587 6.6361 2.06175 0.404472 6.51102 -8.28433 13.7382 6.12662 8.45826 3.34209e-007 -88.9944 -0.0325012 -179.967 -5.21661 -0.441643 -7.40884 -105.922 -1.19873 -173.906 13.6591 -3.8147e-006 -4.76838e-007 -66.0326 -1.3072e-006 2.24316e-005 9.07515 1.90735e-006 4.76837e-007 92.9881 0.000173021 0.00331803 8.13856 -6.13909e-012 0.000563621 -68.5743 -12.4825 31.7416 3.79726 6.30092 0.000582326 89.3747 5.38325e-006 -5.31532e-006 0.838763 -2.98023e-008 1.42109e-014 8.90318e-008 -4.01752e-010 4.30735e-009 -7.76803 -2.00604 3.02516 -96.3091 8.64417 177.967 13.6591 -2.86102e-006 2.12008e-012 -103.871 1.25009e-005 -3.70527e-005 9.07516 -1.06581e-014 -4.44089e-016 107.922 -0.00041929 -6.45222e-006 8.13856 1.35003e-013 2.88658e-014 -55.1419 -12.0294 12.3098 3.79737 6.30085 -8.69889e-007 93.8859 2.46489e-005 0.000204308 0.838766 2.23517e-008 0 -179.96 9.92025e-005 -0.00010199 12.1681 -0.0104828 -4.43225e-010 -9.28029 -4.74791 0.639843 -0.157493 5.09007 -6.54009 -92.7406 -0.022012 -167.965 -0.157495 5.09006 6.54 87.255 -0.000389675 12.0139 8.2971 8.50413 6.46e-007 -91.651 -0.0220947 -179.979 13.2792 -0.00987244 -7.78896e-010 -5.21494 -10.0277 3.43315 12.4882 -6.66644 -1.15422e-006 2.94266 -4.24099 6.83772 -7.54455 -1.75176 -2.22348 -162.597 -71.6204 133.309 13.2557 -8.88178e-015 4.44089e-015 70.1082 41.2731 -104.765 12.8897 -1.90735e-006 5.66658e-013 -69.7723 -1.8605e-005 -2.77868e-005 11.2622 7.10543e-015 5.32907e-015 -154.346 76.2912 129.599 3.98015 -0.208659 -0.0949765 -34.8098 -7.19679 -6.72802 6.57561 -4.76836e-007 3.55272e-015 -179.96 1.73467e-005 4.46088e-005 -7.82439 -1.92598 0.109176 163.913 62.8705 -56.9479 13.2558 7.99361e-015 -9.53674e-007 -51.0561 -66.153 -51.3367 12.8897 8.88178e-016 -9.53674e-007 -41.4549 1.29186e-006 1.28755e-005 11.2622 9.53674e-007 6.21725e-015 -41.2187 -11.6648 -4.8163 3.98015 -0.208658 0.0949745 9.15061 -45.8533 9.54822 6.57562 -9.53674e-007 3.55271e-015 -1.29331e-007 -1.66048e-008 1.26406e-008 4.19498 -0.00312805 -5.56241e-010 -14.5151 1.2121 26.4312 4.17604 0.298248 2.43731e-008 41.1809 9.62549 -4.65771 6.53259 -3.90694 -2.55361 133.025 18.1401 163.594 6.5326 -3.90695 2.55371 -46.976 18.1112 -16.4184 1.75934 -4.1584 -4.45634 24.7931 -39.7306 142.462 1.75933 -4.1584 4.45616 -155.196 -39.7317 -37.5282 11.2964 -1.06183 2.32054 151.28 -2.12705 -89.9982 11.2964 -1.06184 -2.32035 -28.7077 -2.13819 89.9962 1.31489 1.30001 3.953e-009 -171.6 -2.74198 -178.749 12.6869 -1.90735e-006 -8.73195e-011 -1.00716e-005 -1.47393e-010 3.05592e-011 
-30.2956 8.55184 -6.45278e-007 -178.49 -41.4788 -86.6899 8.88178e-016 1.12799e-013 0 -118.825 -3.04962 -89.7781 -7.25225 -1.74978 -2.91038e-011 4.50428 9.73323 -153.238 15.788 3.8147e-006 -9.53674e-007 9.31682 12.0373 -22.9743 16.0015 -3.8147e-006 4.76837e-007 15.8832 -31.8005 -20.6024 16.1689 -7.6294e-006 -1.32161e-012 17.0897 33.1374 -10.8364 6.51912 2.03513 1.34257 4.56146 -9.4537 3.59906 6.12662 8.45826 3.38566e-007 -88.9944 -0.0325012 -179.967 -6.2125 -0.377428 -7.33009 -106.942 0.0911694 -171.331 13.6591 -3.8147e-006 -4.76838e-007 -66.0761 -3.62235e-006 1.94054e-005 9.07515 1.90735e-006 4.76837e-007 93.0472 0.000177509 0.0033169 8.13856 1.8261e-012 0.000563621 -69.4375 -7.36815 29.6318 3.79726 6.30092 0.000582325 89.3747 5.41966e-006 -5.29875e-006 0.838763 -2.98023e-008 7.10543e-015 8.90324e-008 -4.01799e-010 1.00222e-005 -6.88525 -2.16048 3.35401 -95.5657 7.87399 175.379 13.6591 -2.86102e-006 2.31946e-012 -103.888 1.48438e-005 -4.14952e-005 9.07516 -3.55271e-015 2.19269e-015 107.893 1.55832e-005 -5.28006e-006 8.13856 0 -2.14828e-014 -54.3436 -12.0194 12.9726 3.79737 6.30085 -9.95175e-007 93.8859 9.25055e-006 -1.20608e-006 0.838766 2.23517e-008 1.77636e-015 -179.96 9.92014e-005 -0.000101989 12.1681 -0.0104828 -4.48628e-010 -8.65763 0.242899 -4.12857 -0.157493 5.09007 -6.54009 -92.7406 -0.022012 -167.965 -0.157495 5.09006 6.54 87.255 -0.000392807 12.0139 8.2971 8.50413 3.24522e-007 -91.651 -0.0220795 -179.979 13.2792 -0.00987244 -4.05767e-010 -7.36405 -7.68602 -3.88138 12.4882 -6.66644 -8.90296e-007 2.88608 -4.18062 5.44056 -7.59461 -1.76011 -2.03902 -166.685 -71.9302 128.957 13.2557 -8.88178e-015 1.86517e-014 69.7051 39.4505 -108.937 12.8897 -1.90735e-006 4.56524e-013 -76.7613 -9.86191e-006 -2.61337e-005 11.2622 8.88178e-015 5.32907e-015 164.403 79.0025 161.817 3.98015 -0.208659 -0.0949765 -8.43036 8.78986 -0.810967 6.57561 -4.76837e-007 -7.10543e-015 -179.96 1.73424e-005 4.46092e-005 -7.81745 -1.93189 0.29993 166.59 63.2866 -59.894 13.2558 7.10543e-015 -9.53674e-007 -65.4456 -64.5738 -52.2165 12.8897 -3.10862e-015 -9.53674e-007 -39.5529 4.1e-006 3.33357e-006 11.2622 9.53674e-007 3.10862e-015 -41.4782 -11.6212 -5.62712 3.98015 -0.208658 0.0949745 17.4472 -39.646 18.2098 6.57562 -9.53674e-007 7.10543e-015 -1.29331e-007 -1.66047e-008 1.26406e-008 4.19498 -0.00312805 -4.8164e-010 -10.5942 2.40346 20.1813 4.17604 0.298248 2.57758e-008 38.402 13.4557 0.591028 6.53259 -3.90694 -2.55361 133.025 18.1401 163.594 6.5326 -3.90695 2.55371 -46.976 18.1112 -16.4184 1.75934 -4.1584 -4.45634 24.7931 -39.7306 142.462 1.75933 -4.1584 4.45616 -155.196 -39.7317 -37.5282 11.2964 -1.06183 2.32054 151.28 -2.12726 -89.9983 11.2964 -1.06184 -2.32035 -28.7077 -2.13818 89.9962 1.31489 1.30001 -3.79976e-008 -173.476 -2.78701 -178.821 12.6869 -1.90735e-006 -8.72387e-011 -1.00716e-005 -1.51197e-010 1.00179e-005 
-30.2956 8.64462 -6.43988e-007 -173.468 -36.8348 -87.3598 0 1.13687e-013 0 -115.188 -3.33147 -80.6349 -7.25225 -1.74978 -2.91038e-011 4.27865 3.55002 -172.045 15.788 3.8147e-006 -9.53674e-007 13.1113 10.1245 -23.1253 16.0015 -3.8147e-006 4.76837e-007 12.0057 -28.9437 -14.9465 16.1689 -7.6294e-006 -1.47438e-012 28.4715 31.8187 2.64445 6.26682 2.07411 2.20779 1.91479 -11.6975 -7.4708 6.12662 8.45826 3.91857e-007 -88.9944 -0.0325012 -179.967 -7.30023 -0.276742 -6.96424 -106.993 0.212812 -168.998 13.6591 -3.8147e-006 -4.76838e-007 -66.2538 3.80106e-006 1.31945e-005 9.07515 1.90735e-006 4.76837e-007 93.105 0.000181933 0.00331598 8.13856 9.77707e-012 0.000563621 -70.0646 -2.56331 27.3089 3.79726 6.30092 0.000582388 89.3747 6.02781e-006 -5.87295e-006 0.838763 -2.98023e-008 0 8.90323e-008 -4.01672e-010 1.00222e-005 -5.91803 -2.47761 3.5748 -94.3006 5.57548 173.751 13.6591 -2.86102e-006 1.1493e-012 -103.882 9.45941e-006 -1.53889e-005 9.07516 -1.42109e-014 4.44089e-016 107.905 3.15847e-006 -4.25963e-006 8.13856 0 2.66454e-015 -53.8348 -11.8428 12.4919 3.79737 6.30085 -1.14778e-006 93.8859 7.94314e-006 3.08405e-006 0.838766 2.23517e-008 1.77636e-015 -179.96 9.91984e-005 -0.000101988 12.1681 -0.0104828 -5.14671e-010 -6.67467 6.14994 -8.03298 -0.157493 5.09007 -6.54009 -92.7406 -0.022012 -167.965 -0.157495 5.09006 6.54 87.255 -0.000398253 12.0139 8.2971 8.50413 -2.53731e-008 -91.651 -0.0220795 -179.979 13.2792 -0.00987244 3.44613e-013 -8.8531 -2.47971 -9.64744 12.4882 -6.66644 -3.05391e-007 2.79748 -4.08503 3.14552 -7.66793 -1.7741 -1.73188 -173.638 -72.2222 121.564 13.2557 -5.32907e-015 2.26485e-014 70.6699 37.0624 -109.204 12.8897 -1.90735e-006 2.4869e-013 -83.2848 -1.10622e-005 -2.09856e-005 11.2622 3.55271e-015 -5.32907e-015 114.33 74.3992 -156.292 3.98015 -0.208659 -0.0949765 17.4155 29.4367 -0.597548 6.57561 -4.76836e-007 -7.10543e-015 -179.96 1.7345e-005 4.4617e-005 -7.79688 -1.942 0.614415 171.149 63.8279 -64.8929 13.2558 -1.77636e-015 -9.53674e-007 -72.3325 -66.631 -44.7181 12.8897 1.77636e-015 -9.53674e-007 -39.4572 -2.79711e-006 -1.91974e-006 11.2622 9.53674e-007 -3.33067e-015 -41.5469 -11.6091 -4.93135 3.98015 -0.208658 0.0949745 23.3615 -33.4687 24.5548 6.57562 -9.53674e-007 3.55271e-015 -1.29331e-007 -1.66047e-008 1.26406e-008 4.19498 -0.00312805 -2.25281e-010 -5.63793 4.89987 12.5839 4.17604 0.298248 2.34596e-009 35.1369 14.1156 5.2469 6.53259 -3.90694 -2.55361 133.025 18.1401 163.594 6.5326 -3.90695 2.55371 -46.976 18.1112 -16.4184 1.75934 -4.1584 -4.45634 24.7931 -39.7306 142.462 1.75933 -4.1584 4.45616 -155.196 -39.7317 -37.5282 11.2964 -1.06183 2.32054 151.28 -2.12726 -89.9983 11.2964 -1.06184 -2.32035 -28.7077 -2.13818 89.9962 1.31489 1.30001 -1.16539e-007 -175.316 -2.82891 -178.893 12.6869 -1.90735e-006 -8.7078e-011 -1.00716e-005 -1.51846e-010 1.00179e-005 
-30.2956 8.74667 -6.42568e-007 -170.573 -34.767 -86.5381 0 1.13687e-013 0 -113.917 -3.35725 -81.2501 -7.25225 -1.74978 -2.91074e-011 0.00206686 -0.374784 174.21 15.788 3.8147e-006 -9.53674e-007 15.2069 9.21874 -23.1158 16.0015 -3.8147e-006 4.76837e-007 5.84938 -24.6715 -8.06711 16.1689 -7.6294e-006 -1.54543e-012 35.292 29.4202 9.64753 6.30053 2.09633 2.08653 0.057044 -12.0848 -9.50702 6.12662 8.45826 4.08738e-007 -88.9944 -0.0325012 -179.967 -7.50208 -0.470221 -6.63684 -105.4 -0.631376 -165.668 13.6591 -3.8147e-006 -4.76837e-007 -66.4752 8.11387e-007 1.19966e-005 9.07515 1.90735e-006 4.76837e-007 93.1152 0.000184256 0.00331454 8.13856 1.79625e-011 0.000563621 -70.4059 1.73601 24.8382 3.79726 6.30092 0.000582431 89.3747 6.46379e-006 -6.2639e-006 0.838763 -2.98023e-008 0 8.90323e-008 -4.01679e-010 1.00222e-005 -5.74876 -2.74294 3.83151 -91.8441 2.40905 174.16 13.6591 -2.86102e-006 9.71667e-013 -103.848 8.6257e-006 -1.20284e-005 9.07516 -3.55271e-015 4.44089e-015 107.94 1.02608e-005 -4.25456e-006 8.13856 -1.42109e-014 -8.88178e-015 -53.5155 -11.5456 11.1507 3.79737 6.30085 -1.17657e-006 93.8859 7.90148e-006 7.33142e-006 0.838766 2.23518e-008 3.55271e-015 -179.96 9.91974e-005 -0.000101988 12.1681 -0.0104828 -5.35595e-010 -5.39921 8.85028 -8.32696 -0.157493 5.09007 -6.54009 -92.7406 -0.0220269 -167.965 -0.157495 5.09006 6.54 87.255 -0.000406684 12.0139 8.2971 8.50413 -1.85301e-007 -91.651 -0.0220795 -179.979 13.2792 -0.00987244 1.85961e-010 -8.56139 1.05233 -10.6405 12.4882 -6.66644 6.60266e-008 2.75933 -4.03086 2.80664 -7.67687 -1.78046 -1.68563 -174.659 -72.2009 120.455 13.2557 1.77636e-015 8.88178e-015 78.2285 34.9073 -112.008 12.8897 -1.90735e-006 1.65201e-013 -86.4453 1.04819e-006 -2.03582e-005 11.2622 7.10542e-015 -7.10543e-015 101.298 67.2592 -139.398 3.98015 -0.208659 -0.0949765 12.6746 40.0725 3.21879 6.57561 -4.76836e-007 -1.33227e-014 -179.96 1.73446e-005 4.46153e-005 -7.79207 -1.94609 0.661547 171.844 63.9315 -65.6282 13.2558 8.88178e-016 -9.53674e-007 -71.9021 -67.5027 -38.8398 12.8897 -3.66374e-015 -9.53674e-007 -39.7062 -5.67834e-006 -5.33329e-006 11.2622 9.53674e-007 3.55271e-015 -41.5783 -11.6049 -0.961567 3.98015 -0.208658 0.0949745 21.9636 -31.0958 23.4972 6.57562 -9.53674e-007 1.06581e-014 -1.29331e-007 -1.66047e-008 1.26406e-008 4.19498 -0.00312805 -4.49756e-011 -3.69846 6.02363 8.46736 4.17604 0.298248 -1.47356e-008 32.8434 12.8204 3.13419 6.53259 -3.90694 -2.55361 133.025 18.1401 163.594 6.5326 -3.90695 2.55371 -46.976 18.1112 -16.4184 1.75934 -4.1584 -4.45634 24.7931 -39.7306 142.462 1.75933 -4.1584 4.45616 -155.196 -39.7317 -37.5282 11.2964 -1.06183 2.32054 151.28 -2.12717 -89.9983 11.2964 -1.06184 -2.32035 -28.7077 -2.13818 89.9962 1.31489 1.30001 -1.73553e-007 -176.54 -2.86241 -178.922 12.6869 -1.90735e-006 -8.69771e-011 -1.00716e-005 -1.51223e-010 1.00179e-005 
